HIERARCHY
ROOT ui
{
	 OFFSET 0 0 0
	 CHANNELS 3 XPosition YPosition Z Position
	 EndSite
	 {
	 OFFSET 0 -1 0
	 }
}
ROOT li
{
	 OFFSET 0 0 0
	 CHANNELS 3 XPosition YPosition Z Position
	 EndSite
	 {
	 OFFSET 0 -1 0
	 }
}
ROOT ul
{
	 OFFSET 0 0 0
	 CHANNELS 3 XPosition YPosition Z Position
	 EndSite
	 {
	 OFFSET 0 -1 0
	 }
}
ROOT ll
{
	 OFFSET 0 0 0
	 CHANNELS 3 XPosition YPosition Z Position
	 EndSite
	 {
	 OFFSET 0 -1 0
	 }
}
ROOT tt
{
	 OFFSET 0 0 0
	 CHANNELS 3 XPosition YPosition Z Position
	 EndSite
	 {
	 OFFSET 0 -1 0
	 }
}
ROOT tb
{
	 OFFSET 0 0 0
	 CHANNELS 3 XPosition YPosition Z Position
	 EndSite
	 {
	 OFFSET 0 -1 0
	 }
}
ROOT td
{
	 OFFSET 0 0 0
	 CHANNELS 3 XPosition YPosition Z Position
	 EndSite
	 {
	 OFFSET 0 -1 0
	 }
}
ROOT v
{
	 OFFSET 0 0 0
	 CHANNELS 3 XPosition YPosition Z Position
	 EndSite
	 {
	 OFFSET 0 -1 0
	 }
}
ROOT bn
{
	 OFFSET 0 0 0
	 CHANNELS 3 XPosition YPosition Z Position
	 EndSite
	 {
	 OFFSET 0 -1 0
	 }
}
MOTION
Frames: 32
Frame Time: 0.002
0.01729010772705078	0.003146817922592163	0		0.4176938171386719	-2.3023193359375	0		-0.9220103149414063	0.24969854736328126	0		-0.4692412414550781	-2.420620849609375	0		1.7998818359375	-0.55447998046875	0		3.41321435546875	-0.35139898681640624	0		4.6107255859375	-0.2629028015136719	0		5.90849951171875	0.28266387939453125	0		-0.32008477783203126	5.9320712890625	0		
0.017399745941162108	0.0031646060943603515	0		0.46669119262695313	-2.313048583984375	0		-0.9388110961914062	0.2559585418701172	0		-0.4520986022949219	-2.42187548828125	0		1.7879891357421875	-0.5552396850585938	0		3.37204296875	-0.36967523193359375	0		4.61187158203125	-0.2608050842285156	0		5.895708984375	0.2782000122070313	0		-0.3031468811035156	5.9288203125	0		
-0.014572978973388672	-0.0023334810733795165	0		0.43888235473632814	-2.31159814453125	0		-0.9268568725585937	0.24575933837890626	0		-0.4539541320800781	-2.423847900390625	0		1.78811865234375	-0.5551886596679687	0		3.38127490234375	-0.3627251281738281	0		4.597134765625	-0.25145501708984375	0		5.88794921875	0.2787568359375	0		-0.1850198211669922	5.938	0		
-0.014454701423645019	-0.002336522102355957	0		0.465015869140625	-2.31498828125	0		-0.9267455444335938	0.24573081970214844	0		-0.4636285400390625	-2.41471044921875	0		1.785191162109375	-0.5590946655273438	0		3.38321826171875	-0.3746626892089844	0		4.60213623046875	-0.2594052734375	0		5.8984365234375	0.23193501281738282	0		-0.3173903198242187	5.91802587890625	0		
-0.014337277412414551	-0.002349725008010864	0		0.4143338623046875	-2.306204345703125	0		-0.9896437377929688	0.24565692138671874	0		-0.48549517822265625	-2.418399169921875	0		1.791447998046875	-0.5511452026367187	0		3.38656201171875	-0.3606182861328125	0		4.6012158203125	-0.2622596435546875	0		5.89436474609375	0.25141893005371097	0		-0.3032891540527344	5.928787109375	0		
0.017867063522338866	0.0031362760066986086	0		0.46947430419921876	-2.310055419921875	0		-0.9214672241210937	0.24955892944335936	0		-0.4900681457519531	-2.403363037109375	0		1.7946280517578126	-0.5481543579101562	0		3.383475830078125	-0.3744803771972656	0		4.60646240234375	-0.2542064514160156	0		5.90317236328125	0.27735107421875	0		-0.337443115234375	5.92427587890625	0		
-0.011059592247009278	5.490350127220154E-4	0		0.4427044677734375	-2.307658203125	0		-0.9264205322265625	0.2455721435546875	0		-0.45491839599609374	-2.406946533203125	0		1.7868099365234376	-0.5450014038085937	0		3.388634765625	-0.372470703125	0		4.59560400390625	-0.2529094543457031	0		5.90325830078125	0.2776552734375	0		-0.303461181640625	5.92871240234375	0		
0.010993688583374024	-0.003826627969741821	0		0.4937911376953125	-2.31545947265625	0		-0.9263124389648437	0.24549885559082033	0		-0.45471548461914063	-2.4070029296875	0		1.7869462890625	-0.5449777221679688	0		3.394642333984375	-0.38048031616210937	0		4.60263720703125	-0.2588913879394531	0		5.89254931640625	0.262781494140625	0		-0.317722412109375	5.9178759765625	0		
-0.013869487762451171	-0.0024941070079803466	0		0.41512417602539065	-2.30628857421875	0		-0.920279541015625	0.24032652282714845	0		-0.42054440307617186	-2.40958447265625	0		1.78402392578125	-0.548915283203125	0		3.367747314453125	-0.38199490356445315	0		4.5909794921875	-0.2445924835205078	0		5.88062158203125	0.28081439208984377	0		-0.31781744384765626	5.91781640625	0		
0.014293981552124023	2.4826999753713608E-5	0		0.4433096923828125	-2.30775390625	0		-0.91424365234375	0.23514778137207032	0		-0.4831473388671875	-2.396699951171875	0		1.7951787109375	-0.5480734252929688	0		3.39363623046875	-0.3983218994140625	0		4.60185009765625	-0.261647705078125	0		5.8998583984375	0.263079833984375	0		-0.3206961364746094	5.9317939453125	0		
-0.0034736480712890625	0.007236369132995605	0		0.42163925170898436	-2.299466796875	0		-0.9100675659179688	0.23899365234375	0		-0.4439125061035156	-2.39536865234375	0		1.790428955078125	-0.540995849609375	0		3.395047119140625	-0.3802799072265625	0		4.60507421875	-0.2555919189453125	0		5.89994970703125	0.26333843994140627	0		-0.3359464111328125	5.9209501953125	0		
0.014545862197875976	-1.0020899772644043E-4	0		0.445767822265625	-2.30487939453125	0		-0.9158720092773438	0.2439871063232422	0		-0.48069808959960936	-2.39489013671875	0		1.784681640625	-0.5339094848632813	0		3.384962158203125	-0.39507528686523435	0		4.60724072265625	-0.2535288543701172	0		5.89708251953125	0.24638681030273438	0		-0.30390573120117187	5.928388671875	0		
-0.007276581764221191	0.0031623420715332032	0		0.44392965698242187	-2.3079033203125	0		-0.909826416015625	0.23879730224609375	0		-0.42447955322265624	-2.39481982421875	0		1.7728155517578126	-0.5347380981445312	0		3.362168212890625	-0.3906851806640625	0		4.5963955078125	-0.2522784881591797	0		5.889333984375	0.24689739990234374	0		-0.3039739990234375	5.92830908203125	0		
0.0117457218170166	-0.004196428775787354	0		0.443103759765625	-2.309947265625	0		-0.9826959228515625	0.23979289245605467	0		-0.4823112487792969	-2.397033935546875	0		1.772962646484375	-0.5347545776367187	0		3.37809814453125	-0.4048896789550781	0		4.598322265625	-0.26623269653320314	0		5.88993896484375	0.2142079315185547	0		-0.30403472900390627	5.92822607421875	0		
-0.01006460952758789	5.5890999734401704E-5	0		0.4204092102050781	-2.302667236328125	0		-0.9825762939453125	0.23968487548828124	0		-0.4780512084960937	-2.393187255859375	0		1.77921044921875	-0.5278690795898437	0		3.358525146484375	-0.38556597900390627	0		4.59154833984375	-0.2600653076171875	0		5.87961279296875	0.2597521362304688	0		-0.3381605529785156	5.92364990234375	0		
0.019097747802734374	0.002538198947906494	0		0.4506228942871094	-2.301187255859375	0		-0.9692841796875	0.25137789916992187	0		-0.48162127685546874	-2.377225341796875	0		1.7793463134765626	-0.5279002075195313	0		3.37529541015625	-0.4098035888671875	0		4.60266064453125	-0.26118002319335937	0		5.88754736328125	0.25961972045898435	0		-0.32306265258789063	5.93333154296875	0		
-0.009833825111389161	-1.1424899846315384E-4	0		0.4467355346679687	-2.305201904296875	0		-0.9623909912109375	0.2371615753173828	0		-0.4515702209472656	-2.385773193359375	0		1.779470703125	-0.527939453125	0		3.38353515625	-0.40192050170898436	0		4.581794921875	-0.25982931518554686	0		5.885349609375	0.23733511352539063	0		-0.31932199096679686	5.919177734375	0		
-0.00973899745941162	-2.0646800100803376E-4	0		0.44688766479492187	-2.305282958984375	0		-0.957242919921875	0.24097055053710936	0		-0.49623187255859375	-2.373205810546875	0		1.7765341796875	-0.5309420166015625	0		3.39635498046875	-0.421120361328125	0		4.57294189453125	-0.2566733093261719	0		5.87985302734375	0.2601250915527344	0		-0.31937432861328124	5.91907763671875	0		
-0.016767080307006837	-0.007198635101318359	0		0.4449712219238281	-2.308339599609375	0		-0.9522479858398437	0.2357776336669922	0		-0.4512861938476562	-2.38598388671875	0		1.7766217041015624	-0.5309986572265625	0		3.363577880859375	-0.41164898681640627	0		4.5789033203125	-0.2647547607421875	0		5.879908203125	0.2601905212402344	0		-0.3194337158203125	5.9189736328125	0		
-0.009608848571777344	-4.0603700280189515E-4	0		0.42115078735351563	-2.30307568359375	0		-0.9321111450195313	0.2413573760986328	0		-0.4691652526855469	-2.384827392578125	0		1.779731689453125	-0.52810888671875	0		3.37134228515625	-0.43179824829101565	0		4.5769189453125	-0.2677318115234375	0		5.88779443359375	0.25994281005859377	0		-0.3384400634765625	5.92314697265625	0		
0.022511600494384765	0.005011056900024414	0		0.479251953125	-2.30203662109375	0		-0.9239628295898438	0.24911390686035156	0		-0.47284747314453124	-2.368884521484375	0		1.7828355712890624	-0.524226806640625	0		3.39166552734375	-0.413140869140625	0		4.59104638671875	-0.261961181640625	0		5.88782080078125	0.25995111083984374	0		-0.32238409423828124	5.9317958984375	0		
-0.0065131659507751466	0.0023332490921020507	0		0.4492810363769531	-2.303692138671875	0		-0.9239503173828125	0.24898902893066407	0		-0.4768647155761719	-2.37394189453125	0		1.779802001953125	-0.5282610473632813	0		3.359380615234375	-0.43371533203125	0		4.58209814453125	-0.25985964965820313	0		5.87998876953125	0.26021759033203123	0		-0.3064839782714844	5.930443359375	0		
-0.00955765438079834	-7.3396897315979E-4	0		0.4742388000488281	-2.309167724609375	0		-0.923954345703125	0.248863037109375	0		-0.4788583984375	-2.37603125	0		1.7767655029296876	-0.5313011474609375	0		3.3504326171875	-0.43064306640625	0		4.574939453125	-0.2707969970703125	0		5.88783544921875	0.25989694213867187	0		-0.3065742797851562	5.93032666015625	0		
-0.009573637008666992	-8.48691999912262E-4	0		0.4193048095703125	-2.305460693359375	0		-0.986100341796875	0.2406560516357422	0		-0.47681256103515623	-2.37418212890625	0		1.77369775390625	-0.5353466186523438	0		3.3522294921875	-0.44374020385742186	0		4.56289892578125	-0.27267105102539063	0		5.87740283203125	0.3051983642578125	0		-0.3208326721191406	5.9194169921875	0		
0.015394440650939941	-0.0013364260196685792	0		0.44933001708984377	-2.304017333984375	0		-0.9729561157226563	0.2523328857421875	0		-0.49682546997070315	-2.3750087890625	0		1.7736751708984375	-0.5354423217773437	0		3.366352294921875	-0.43402517700195314	0		4.5756640625	-0.286923828125	0		5.8852275390625	0.3048381652832031	0		-0.3739281005859375	5.92008056640625	0		
-0.006597840785980224	0.0018692350387573243	0		0.42539263916015624	-2.298777587890625	0		-1.0059351806640624	0.2566905212402344	0		-0.46085748291015627	-2.3766669921875	0		1.7677313232421874	-0.5294546508789062	0		3.354993408203125	-0.455943115234375	0		4.5628369140625	-0.2728029479980469	0		5.8829228515625	0.28233172607421875	0		-0.30687619018554685	5.9299638671875	0		
0.019352935791015626	0.0013622629642486572	0		0.44929257202148437	-2.304250244140625	0		-0.9690029296875	0.25501097106933596	0		-0.5056977233886719	-2.36412939453125	0		1.76463134765625	-0.5335145263671875	0		3.377037841796875	-0.45035812377929685	0		4.5645859375	-0.28690786743164065	0		5.88289111328125	0.2822221984863281	0		-0.32114276123046875	5.919046875	0		
-0.009740431785583497	-0.0013332129716873168	0		0.447232666015625	-2.3063408203125	0		-0.9690574951171875	0.2548771667480469	0		-0.47280526733398437	-2.36974609375	0		1.7615401611328125	-0.5365780029296875	0		3.351830078125	-0.46108035278320314	0		4.5596552734375	-0.278916748046875	0		5.87728564453125	0.304794677734375	0		-0.18992474365234374	5.93997998046875	0		
-0.009797860145568847	-0.0014605649709701538	0		0.44515142822265624	-2.309434326171875	0		-1.0020397338867189	0.2602283935546875	0		-0.5077936706542969	-2.36636083984375	0		1.7614874267578124	-0.5366897583007812	0		3.37080419921875	-0.45945904541015625	0		4.56139306640625	-0.2930318603515625	0		5.8850908203125	0.30438348388671876	0		-0.3554449462890625	5.9132919921875	0		
-0.00985943603515625	-0.0015904459953308106	0		0.42322836303710937	-2.30123681640625	0		-1.0191309814453124	0.258342041015625	0		-0.4609896240234375	-2.3771875	0		1.7614300537109375	-0.5368058471679688	0		3.345424072265625	-0.48119100952148436	0		4.5493203125	-0.29394879150390624	0		5.88504736328125	0.3042388610839844	0		-0.3545675048828125	5.91214501953125	0		
0.022162538528442383	0.0038043949604034425	0		0.4532057800292969	-2.299809326171875	0		-0.9680388793945313	0.26844961547851565	0		-0.4888873291015625	-2.36691015625	0		1.7613702392578126	-0.536927001953125	0		3.379640625	-0.4628063049316406	0		4.55436181640625	-0.28712725830078123	0		5.89284716796875	0.30379299926757813	0		-0.325345703125	5.933580078125	0		
-0.00694019889831543	0.0010986419916152953	0		0.44908038330078126	-2.3048818359375	0		-0.9721602172851562	0.26437094116210935	0		-0.4689265441894531	-2.366341552734375	0		1.76031103515625	-0.5370390625	0		3.327394775390625	-0.4751575927734375	0		4.55122802734375	-0.29219766235351563	0		5.8928037109375	0.3036036071777344	0		-0.30847805786132815	5.93019384765625	0		
